<?xml version="1.0" encoding="utf-8"?>
<!-- Generator: Adobe Illustrator 16.0.0, SVG Export Plug-In . SVG Version: 6.00 Build 0)  -->
<!DOCTYPE svg PUBLIC "-//W3C//DTD SVG 1.1//EN" "http://www.w3.org/Graphics/SVG/1.1/DTD/svg11.dtd">
<svg version="1.1" id="Layer_1" xmlns="http://www.w3.org/2000/svg" xmlns:xlink="http://www.w3.org/1999/xlink" x="0px" y="0px"
	 width="193.858px" height="24.479px" viewBox="0 0 193.858 24.479" enable-background="new 0 0 193.858 24.479"
	 xml:space="preserve">
<g>
	<path d="M0,5.436C0.336,5.364,0.671,5.31,1.008,5.274C1.344,5.238,1.716,5.22,2.124,5.22c0.408,0,0.768,0.018,1.08,0.054
		C3.516,5.31,3.84,5.364,4.176,5.436c0.072,0.12,0.138,0.294,0.198,0.522c0.06,0.228,0.114,0.468,0.162,0.72
		c0.048,0.252,0.09,0.499,0.126,0.738c0.036,0.24,0.066,0.444,0.09,0.612c0.192-0.36,0.444-0.72,0.756-1.08s0.684-0.684,1.116-0.972
		c0.432-0.288,0.918-0.522,1.458-0.702c0.54-0.18,1.146-0.27,1.818-0.27c2.904,0,4.764,1.104,5.58,3.312
		c0.48-0.888,1.158-1.662,2.034-2.322c0.875-0.66,1.985-0.99,3.33-0.99c2.112,0,3.666,0.582,4.662,1.746
		C26.501,7.914,27,9.732,27,12.204v11.844c-0.864,0.144-1.716,0.216-2.556,0.216c-0.84,0-1.692-0.072-2.556-0.216V13.536
		c0-1.296-0.162-2.292-0.486-2.988c-0.324-0.696-0.978-1.044-1.962-1.044c-0.408,0-0.81,0.06-1.206,0.18s-0.756,0.342-1.08,0.666
		c-0.324,0.324-0.588,0.78-0.792,1.368c-0.204,0.588-0.306,1.35-0.306,2.286v10.044c-0.864,0.144-1.716,0.216-2.556,0.216
		c-0.84,0-1.692-0.072-2.556-0.216V13.536c0-1.296-0.162-2.292-0.486-2.988C10.134,9.852,9.48,9.504,8.496,9.504
		c-0.409,0-0.816,0.06-1.224,0.18c-0.408,0.12-0.774,0.354-1.098,0.702C5.85,10.734,5.592,11.22,5.4,11.844
		c-0.192,0.625-0.288,1.44-0.288,2.448v9.756c-0.864,0.144-1.716,0.216-2.556,0.216c-0.84,0-1.692-0.072-2.556-0.216V5.436z"/>
	<path d="M40.932,11.808c0-0.576-0.096-1.044-0.288-1.404c-0.192-0.36-0.456-0.642-0.792-0.846c-0.336-0.204-0.75-0.342-1.242-0.414
		c-0.492-0.072-1.038-0.108-1.638-0.108c-1.296,0-2.677,0.252-4.14,0.756c-0.336-0.624-0.588-1.212-0.756-1.764
		c-0.168-0.552-0.252-1.211-0.252-1.98c1.056-0.36,2.111-0.624,3.168-0.792c1.056-0.167,2.04-0.252,2.952-0.252
		c2.496,0,4.446,0.6,5.85,1.8c1.404,1.201,2.106,3.12,2.106,5.76v10.8c-0.84,0.264-1.86,0.516-3.06,0.756
		c-1.2,0.239-2.556,0.359-4.068,0.359c-1.224,0-2.346-0.107-3.366-0.323c-1.021-0.217-1.896-0.576-2.628-1.08
		c-0.732-0.504-1.296-1.152-1.692-1.944s-0.594-1.764-0.594-2.916s0.246-2.118,0.738-2.898c0.492-0.78,1.128-1.404,1.908-1.872
		c0.779-0.468,1.649-0.804,2.61-1.008c0.959-0.204,1.92-0.306,2.88-0.306c0.696,0,1.464,0.036,2.304,0.108V11.808z M40.932,15.516
		c-0.288-0.047-0.6-0.09-0.936-0.126c-0.336-0.036-0.636-0.054-0.9-0.054c-1.176,0-2.106,0.21-2.79,0.63
		c-0.684,0.42-1.026,1.098-1.026,2.034c0,0.624,0.132,1.104,0.396,1.439c0.264,0.337,0.582,0.583,0.954,0.738
		c0.372,0.156,0.768,0.252,1.188,0.288s0.786,0.054,1.098,0.054c0.36,0,0.72-0.029,1.08-0.09c0.36-0.06,0.671-0.113,0.936-0.162
		V15.516z"/>
	<path d="M50.111,5.436c0.864-0.144,1.716-0.216,2.556-0.216c0.84,0,1.692,0.072,2.556,0.216V15.3c0,0.984,0.078,1.794,0.234,2.43
		c0.156,0.637,0.396,1.141,0.72,1.513c0.324,0.372,0.726,0.636,1.206,0.792s1.044,0.233,1.692,0.233
		c0.888,0,1.632-0.084,2.232-0.252V5.436c0.864-0.144,1.704-0.216,2.52-0.216c0.84,0,1.692,0.072,2.556,0.216v17.892
		c-0.768,0.264-1.782,0.521-3.042,0.773c-1.26,0.252-2.574,0.378-3.942,0.378c-1.224,0-2.4-0.096-3.528-0.288
		c-1.128-0.191-2.119-0.6-2.97-1.224c-0.852-0.624-1.53-1.535-2.034-2.736c-0.504-1.199-0.756-2.795-0.756-4.788V5.436z"/>
	<path d="M68.688,5.472c0.576-0.12,1.11-0.191,1.602-0.216c0.491-0.023,0.918-0.036,1.278-0.036c0.48,0,0.959,0.013,1.44,0.036
		c0.48,0.024,0.924,0.084,1.332,0.18l4.068,13.86l3.996-13.86c0.408-0.072,0.84-0.126,1.296-0.162
		c0.456-0.036,0.912-0.054,1.368-0.054c0.36,0,0.774,0.013,1.242,0.036c0.468,0.024,1.002,0.096,1.602,0.216l-7.056,18.576
		c-0.457,0.072-0.936,0.12-1.44,0.144c-0.504,0.024-0.924,0.036-1.26,0.036c-0.36,0-0.769-0.012-1.224-0.036
		c-0.456-0.023-0.888-0.084-1.296-0.18L68.688,5.472z"/>
	<path d="M93.959,16.308c0.096,1.44,0.6,2.484,1.512,3.132c0.912,0.648,2.111,0.973,3.6,0.973c0.815,0,1.649-0.078,2.502-0.234
		c0.852-0.155,1.662-0.378,2.43-0.666c0.264,0.48,0.492,1.057,0.684,1.729c0.192,0.672,0.3,1.392,0.324,2.159
		c-1.872,0.721-3.984,1.08-6.336,1.08c-1.728,0-3.21-0.24-4.446-0.72c-1.236-0.479-2.244-1.146-3.024-1.998
		c-0.78-0.852-1.356-1.865-1.728-3.042c-0.373-1.176-0.558-2.459-0.558-3.852c0-1.368,0.192-2.651,0.576-3.852
		c0.384-1.2,0.954-2.244,1.71-3.132c0.756-0.888,1.692-1.589,2.808-2.106c1.116-0.516,2.417-0.774,3.906-0.774
		c1.296,0,2.448,0.229,3.456,0.684c1.008,0.456,1.866,1.08,2.574,1.872c0.708,0.792,1.242,1.734,1.602,2.826
		c0.36,1.092,0.54,2.263,0.54,3.51c0,0.456-0.018,0.906-0.054,1.35c-0.036,0.444-0.078,0.798-0.126,1.062H93.959z M101.267,12.744
		c-0.048-1.152-0.366-2.082-0.954-2.79c-0.588-0.708-1.41-1.062-2.466-1.062c-1.201,0-2.112,0.336-2.736,1.008
		c-0.625,0.672-0.997,1.62-1.116,2.844H101.267z"/>
	<path d="M110.123,5.436c0.336-0.072,0.671-0.126,1.008-0.162c0.336-0.036,0.708-0.054,1.116-0.054c0.408,0,0.768,0.018,1.08,0.054
		c0.312,0.036,0.636,0.09,0.972,0.162c0.072,0.12,0.138,0.294,0.198,0.522c0.06,0.228,0.114,0.468,0.162,0.72
		c0.048,0.252,0.09,0.499,0.126,0.738c0.036,0.24,0.066,0.444,0.09,0.612c0.192-0.36,0.444-0.72,0.756-1.08s0.684-0.684,1.116-0.972
		c0.432-0.288,0.918-0.522,1.458-0.702c0.54-0.18,1.146-0.27,1.818-0.27c2.904,0,4.764,1.104,5.58,3.312
		c0.48-0.888,1.158-1.662,2.034-2.322c0.875-0.66,1.985-0.99,3.33-0.99c2.112,0,3.666,0.582,4.662,1.746
		c0.996,1.164,1.494,2.982,1.494,5.454v11.844c-0.864,0.144-1.716,0.216-2.556,0.216c-0.84,0-1.692-0.072-2.556-0.216V13.536
		c0-1.296-0.162-2.292-0.486-2.988c-0.324-0.696-0.978-1.044-1.962-1.044c-0.408,0-0.81,0.06-1.206,0.18s-0.756,0.342-1.08,0.666
		c-0.324,0.324-0.588,0.78-0.792,1.368c-0.204,0.588-0.306,1.35-0.306,2.286v10.044c-0.864,0.144-1.716,0.216-2.556,0.216
		c-0.84,0-1.692-0.072-2.556-0.216V13.536c0-1.296-0.162-2.292-0.486-2.988c-0.324-0.696-0.978-1.044-1.962-1.044
		c-0.409,0-0.816,0.06-1.224,0.18c-0.408,0.12-0.774,0.354-1.098,0.702c-0.324,0.348-0.582,0.834-0.774,1.458
		c-0.192,0.625-0.288,1.44-0.288,2.448v9.756c-0.864,0.144-1.716,0.216-2.556,0.216c-0.84,0-1.692-0.072-2.556-0.216V5.436z"/>
	<path d="M145.835,16.308c0.096,1.44,0.6,2.484,1.512,3.132c0.912,0.648,2.111,0.973,3.6,0.973c0.815,0,1.649-0.078,2.502-0.234
		c0.852-0.155,1.662-0.378,2.43-0.666c0.264,0.48,0.492,1.057,0.684,1.729c0.192,0.672,0.3,1.392,0.324,2.159
		c-1.872,0.721-3.984,1.08-6.336,1.08c-1.728,0-3.21-0.24-4.446-0.72c-1.236-0.479-2.244-1.146-3.024-1.998
		c-0.78-0.852-1.356-1.865-1.728-3.042c-0.373-1.176-0.558-2.459-0.558-3.852c0-1.368,0.192-2.651,0.576-3.852
		c0.384-1.2,0.954-2.244,1.71-3.132c0.756-0.888,1.692-1.589,2.808-2.106c1.116-0.516,2.417-0.774,3.906-0.774
		c1.296,0,2.448,0.229,3.456,0.684c1.008,0.456,1.866,1.08,2.574,1.872c0.708,0.792,1.242,1.734,1.602,2.826
		c0.36,1.092,0.54,2.263,0.54,3.51c0,0.456-0.018,0.906-0.054,1.35c-0.036,0.444-0.078,0.798-0.126,1.062H145.835z M153.143,12.744
		c-0.048-1.152-0.366-2.082-0.954-2.79c-0.588-0.708-1.41-1.062-2.466-1.062c-1.201,0-2.112,0.336-2.736,1.008
		c-0.625,0.672-0.997,1.62-1.116,2.844H153.143z"/>
	<path d="M161.999,5.436c0.336-0.072,0.671-0.126,1.008-0.162c0.336-0.036,0.708-0.054,1.116-0.054c0.408,0,0.768,0.018,1.08,0.054
		c0.312,0.036,0.636,0.09,0.972,0.162c0.072,0.12,0.138,0.294,0.198,0.522c0.06,0.228,0.114,0.468,0.162,0.72
		c0.048,0.252,0.09,0.499,0.126,0.738c0.036,0.24,0.066,0.444,0.09,0.612c0.24-0.36,0.528-0.72,0.864-1.08
		c0.335-0.36,0.726-0.684,1.17-0.972c0.444-0.288,0.941-0.522,1.494-0.702c0.552-0.18,1.164-0.27,1.836-0.27
		c2.111,0,3.702,0.576,4.77,1.728s1.602,2.964,1.602,5.436v11.88c-0.864,0.144-1.716,0.216-2.556,0.216
		c-0.84,0-1.692-0.072-2.556-0.216V13.536c0-1.296-0.198-2.292-0.594-2.988c-0.396-0.696-1.086-1.044-2.07-1.044
		c-0.408,0-0.828,0.06-1.26,0.18c-0.432,0.12-0.823,0.354-1.17,0.702c-0.348,0.348-0.63,0.834-0.846,1.458
		c-0.216,0.625-0.324,1.44-0.324,2.448v9.756c-0.864,0.144-1.716,0.216-2.556,0.216c-0.84,0-1.692-0.072-2.556-0.216V5.436z"/>
	<path d="M183.634,9.324h-2.34l-0.181-0.72L187.846,0h0.828v5.436h4.355c0.072,0.36,0.121,0.684,0.145,0.972s0.036,0.588,0.036,0.9
		c0,0.336-0.013,0.661-0.036,0.972c-0.023,0.312-0.072,0.661-0.145,1.044h-4.355v7.308c0,0.744,0.06,1.345,0.18,1.8
		c0.12,0.456,0.294,0.816,0.522,1.08c0.228,0.265,0.509,0.444,0.846,0.54c0.336,0.097,0.731,0.145,1.188,0.145
		c0.359,0,0.713-0.03,1.062-0.091c0.348-0.06,0.653-0.113,0.918-0.161c0.168,0.456,0.288,0.93,0.36,1.422s0.107,0.93,0.107,1.313
		c0,0.265-0.006,0.486-0.018,0.666s-0.03,0.354-0.055,0.522c-1.104,0.264-2.244,0.396-3.42,0.396c-2.184,0-3.852-0.51-5.004-1.53
		c-1.151-1.02-1.728-2.682-1.728-4.985V9.324z"/>
</g>
</svg>
